<svg width="32" height="32" viewBox="0 0 32 32" fill="none" xmlns="http://www.w3.org/2000/svg">
<g id="message-circle-01">
<path id="Icon" d="M27.9994 15.3333C27.9994 21.5926 22.9253 26.6667 16.6661 26.6667C15.2304 26.6667 13.857 26.3997 12.593 25.9127C12.3618 25.8237 12.2463 25.7792 12.1544 25.758C12.064 25.7372 11.9986 25.7284 11.9059 25.7249C11.8117 25.7213 11.7083 25.732 11.5015 25.7534L4.67347 26.4592C4.02248 26.5265 3.69699 26.5601 3.50498 26.443C3.33775 26.341 3.22384 26.1706 3.19352 25.977C3.15871 25.7548 3.31425 25.4669 3.62533 24.8911L5.80621 20.8544C5.98581 20.522 6.07562 20.3558 6.11629 20.1959C6.15646 20.0381 6.16617 19.9243 6.15332 19.7619C6.14031 19.5975 6.06818 19.3835 5.92391 18.9555C5.54055 17.8181 5.33275 16.6 5.33275 15.3333C5.33275 9.07411 10.4069 4 16.6661 4C22.9253 4 27.9994 9.07411 27.9994 15.3333Z" stroke="white" stroke-width="2.66667" stroke-linecap="round" stroke-linejoin="round"/>
</g>
</svg>
