<svg width="1440" height="621" viewBox="0 0 1440 621" fill="none" xmlns="http://www.w3.org/2000/svg">
<path d="M0 24.13H1440V535.062C1440 535.062 1440 535.062 1425.5 545.742C1392.73 569.878 1329.75 592.493 1140 554.713C812.5 489.508 760 453.466 498.5 554.713C237 655.959 0 611.103 0 611.103V24.13Z" fill="#941ABD" fill-opacity="0.88"/>
<path d="M0 0H1440V510.932C1440 510.932 1440 510.932 1425.5 521.612C1392.73 545.748 1329.75 568.363 1140 530.583C812.5 465.378 760 429.336 498.5 530.583C237 631.829 0 586.973 0 586.973V0Z" fill="#DAC5D4"/>
</svg>
