<svg width="78" height="80" viewBox="0 0 78 80" fill="none" xmlns="http://www.w3.org/2000/svg">
<path d="M49.998 44.8698C47.7375 44.8698 46.3748 42.7536 46.3748 39.2425C46.3748 37.463 46.6634 35.1223 47.0962 33.2626C47.2405 32.6534 47.7696 32.3167 48.459 32.4129C49.1163 32.5091 49.4209 33.0381 49.2606 33.7916C48.8918 35.475 48.6193 37.6073 48.6193 39.2425C48.6193 41.1504 49.2285 42.6253 49.998 42.6253C51.2005 42.6253 52.2425 41.1985 53.3167 37.1423C53.6053 36.0682 53.8618 34.8017 54.1504 33.3748C54.3107 32.6213 54.9359 32.2365 55.6253 32.4449C56.2506 32.6534 56.5071 33.1985 56.3147 33.8397C55.8017 35.5391 55.6574 37.495 55.5131 39.2906C55.4009 40.7015 55.4009 42.0161 55.465 42.978C55.497 43.5712 55.1924 44.0361 54.6634 44.1804C53.99 44.3568 53.3968 44.0201 53.2846 43.3948C53.2526 43.1864 53.2365 42.8177 53.2365 42.481C52.9479 43.0902 52.467 43.7636 52.0181 44.1323C51.4089 44.6293 50.7516 44.8698 49.998 44.8698ZM59.3303 44.7255C58.9616 44.8538 58.3043 44.8538 57.9516 44.5492C57.6951 44.3247 57.4065 43.9239 57.5347 43.2666C57.9035 41.4069 58.2883 36.3568 58.2883 33.0381C58.2883 32.3969 58.8814 31.9159 59.5548 32.0281C60.1319 32.1243 60.5167 32.6053 60.5167 33.2946C60.5167 36.1484 60.5167 39.0983 59.8915 42.2726C61.6069 41.7596 63.6269 41.471 65.3103 41.487C65.9836 41.5031 66.4486 42.0161 66.4005 42.6734V42.6894C66.3524 43.3307 65.8714 43.7476 65.2141 43.7315C63.4666 43.7155 61.2061 44.0842 59.3303 44.7255ZM69.0373 44.7255C68.6685 44.8538 68.0112 44.8538 67.6585 44.5492C67.402 44.3247 67.1134 43.9239 67.2417 43.2666C67.6104 41.4069 67.9952 36.3568 67.9952 33.0381C67.9952 32.3969 68.5884 31.9159 69.2617 32.0281C69.8389 32.1243 70.2236 32.6053 70.2236 33.2946C70.2236 36.1484 70.2236 39.0983 69.5984 42.2726C71.3138 41.7596 73.3338 41.471 75.0172 41.487C75.6906 41.5031 76.1555 42.0161 76.1074 42.6734V42.6894C76.0593 43.3307 75.5783 43.7476 74.921 43.7315C73.1735 43.7155 70.913 44.0842 69.0373 44.7255Z" fill="#EB8BFF"/>
<path d="M45.857 10.4869C48.7524 11.1073 50.4069 13.5202 49.7864 16.2777C49.166 18.9662 46.8221 20.4829 43.9267 20.0003C40.4109 19.3799 37.0329 19.0352 33.9307 19.0352C19.9363 19.0352 14.9039 24.1366 14.697 31.6508C14.6281 33.2364 14.6281 35.0977 14.697 37.0969C23.3143 35.7871 32.483 34.1326 37.8602 33.5121C40.8934 33.2364 43.1684 35.1666 43.2373 38.1999C43.3063 40.8196 41.5139 42.8877 38.8253 43.1634C33.4482 43.7149 23.8658 45.5073 15.2486 46.8861C15.6622 51.5739 16.4894 56.2616 17.7303 60.1222C18.5576 62.6039 17.8682 64.8099 15.9379 66.0508C13.2494 67.7743 9.8714 66.7402 8.90627 63.9137C5.39043 53.642 4.56318 39.7855 4.56318 30.1342C4.56318 15.864 15.3864 9.31494 34.1375 9.31494C37.8602 9.31494 41.7207 9.59069 45.857 10.4869Z" fill="#EB8BFF"/>
<path d="M76.0341 64.3688C75.8552 63.4374 75.7135 61.4028 75.7135 61.4028L73.4797 61.6433C73.4797 61.6433 73.5892 63.487 73.6694 64.8898C73.7885 66.974 75.6333 66.8938 75.1524 68.8577C74.6194 71.034 63.9181 70.2625 60.3566 72.7952C57.564 74.7812 56.7957 77.0742 56.7957 77.0742L57.3969 76.994C57.3969 76.994 57.7079 74.8668 60.0822 73.1864C65.5563 69.3121 78.6721 74.7094 77.8277 67.9715C77.6373 66.4521 76.419 66.3728 76.0341 64.3688Z" fill="#EB8BFF"/>
<path d="M32.523 62.1639C32.8277 62.709 32.6032 63.4144 31.994 63.719C29.7976 64.8573 27.8898 65.3863 25.7735 65.3863C22.9519 65.3863 21.4449 63.5266 21.4449 59.6629C21.4449 58.1879 21.6212 56.4244 22.006 54.3723C22.1343 53.731 22.6954 53.3783 23.2886 53.5226C23.5932 53.6028 23.8016 53.7791 23.9299 54.0196C24.9559 53.6669 27.5691 53.0096 31.0962 52.4805C31.7535 52.3843 32.2986 52.7531 32.3788 53.3462C32.4589 53.9555 32.0581 54.4364 31.4008 54.5326C27.3928 55.1418 25.1323 55.8312 24.4269 56.0557C24.2505 56.1038 24.0421 56.1198 23.8497 56.0717C23.7214 57.0817 23.6253 57.9795 23.5932 58.7811C23.6413 58.749 23.7054 58.733 23.7695 58.717C24.475 58.5246 25.3407 58.2841 26.2545 58.0116C27.2966 57.707 28.4028 57.4024 29.477 57.1138C30.0862 56.9535 30.6152 57.2741 30.7595 57.8673C30.9038 58.4444 30.5832 58.9735 29.99 59.1338C28.9639 59.4064 27.8737 59.727 26.8477 60.0156C25.9178 60.2721 25.0361 60.5286 24.2665 60.737C24.0261 60.8012 23.8016 60.7851 23.6092 60.721C23.8016 62.4364 24.507 63.3022 25.7735 63.3022C27.6333 63.3022 29.2525 62.725 31.1924 61.8112C31.6894 61.5867 32.2505 61.6669 32.523 62.1639ZM42.4916 52.6569C43.181 52.721 43.5978 53.2981 43.4696 54.0036C43.3573 54.5967 42.8283 54.9655 42.203 54.8853C41.3373 54.7891 40.3273 54.7891 39.2852 54.8533C39.5898 57.4665 39.7341 60.9615 39.7822 63.8953C39.7822 64.5527 39.3012 65.0496 38.6599 65.0496C38.0187 65.0496 37.5377 64.5687 37.5377 63.9114C37.4896 60.7691 37.3293 57.4505 37.0407 55.1258C36.2231 55.2701 35.4535 55.4464 34.7642 55.6388C34.1549 55.8152 33.5778 55.5266 33.3694 54.9494C33.1449 54.3082 33.4175 53.6989 34.0106 53.5226C36.4315 52.8172 39.9425 52.4003 42.4916 52.6569ZM50.5283 63.3503C50.6886 63.9434 50.2878 64.5206 49.5824 64.6649C48.2357 64.9374 47.1455 65.1138 45.8469 65.1458C45.2217 65.1619 44.7728 64.713 44.7728 64.1198C44.7728 63.5266 45.2217 63.0777 45.8309 63.0617C45.9592 63.0617 46.1035 63.0456 46.2317 63.0456C46.1355 62.8853 46.0874 62.709 46.0714 62.5006C45.9592 60.3042 45.9752 57.2741 46.2638 54.5967C46.2477 54.6128 46.2317 54.6128 46.2157 54.6128C45.6225 54.741 45.0934 54.4364 44.9331 53.8593C44.7728 53.2661 45.1736 52.6889 45.879 52.5446C47.0013 52.3202 47.9311 52.224 49.0213 52.1919C49.6465 52.1759 50.0954 52.6248 50.0954 53.218C50.0954 53.8112 49.6465 54.2601 49.0373 54.2761C48.877 54.2761 48.7327 54.2921 48.5724 54.2921C48.2518 56.8893 48.2678 60.1118 48.3319 62.4204C48.3319 62.5486 48.3159 62.6769 48.2838 62.7891L49.2457 62.5967C49.8389 62.4685 50.368 62.7731 50.5283 63.3503ZM56.3463 65.0336C53.1239 65.0336 51.4245 63.1098 51.4405 61.3302C51.4405 60.7531 51.681 60.1278 52.0818 59.711C52.4666 59.3102 52.9956 59.3422 53.3964 59.5827C53.8613 59.8713 54.166 60.4484 53.8934 61.0416C53.4285 61.9394 54.6309 62.7891 56.3463 62.7891C58.9275 62.7891 61.8613 61.202 61.8613 59.8392C61.8613 59.1659 60.4826 59.23 58.7511 59.2941C56.2341 59.4064 53.0437 59.5346 53.0437 57.1138C53.0437 54.9334 56.7952 52.4805 60.1139 52.4805C61.7652 52.4805 63.0638 53.3462 63.3203 54.6288C63.4485 55.2541 63.0638 55.703 62.5988 55.8953C62.1179 56.0877 61.5567 55.9915 61.4125 55.4785C61.2682 54.9655 60.8834 54.725 60.1139 54.725C58.2702 54.725 55.3844 56.0717 55.3844 56.9054C55.3844 57.4505 56.5547 57.3863 58.1098 57.3062C60.6589 57.1779 64.1058 56.9855 64.1058 59.8392C64.1058 62.4525 60.2421 65.0336 56.3463 65.0336ZM75.935 64.0557C75.9831 64.6809 75.5663 65.1939 74.941 65.2741C74.2837 65.3543 73.7386 64.9054 73.6905 64.232C73.6103 63.238 73.5142 61.8913 73.434 60.4164C71.7987 60.7691 70.2436 60.9935 68.4961 61.202C68.5122 62.244 68.5602 63.206 68.6083 63.9915C68.6404 64.6168 68.2236 65.1138 67.5983 65.21C66.957 65.2901 66.412 64.8092 66.3799 64.1519C66.3318 63.3823 66.2837 62.4364 66.2516 61.4264C66.1875 61.4264 66.1234 61.4424 66.0592 61.4424C65.4019 61.5066 64.8408 61.1378 64.7606 60.5126C64.6805 59.8553 65.1454 59.2621 65.9951 59.1819C66.0753 59.1819 66.1394 59.1659 66.2196 59.1659C66.2035 57.21 66.2356 55.1739 66.3158 53.5226C66.3478 52.8653 66.8448 52.4003 67.5021 52.4484C68.1434 52.4965 68.5923 53.0096 68.5602 53.6829C68.4801 55.222 68.448 57.1138 68.4641 58.9254C70.2757 58.717 71.8308 58.4765 73.3057 58.1398C73.2095 56.3763 73.1454 54.6128 73.1134 53.2821C73.0973 52.6248 73.5783 52.1278 74.2196 52.1278C74.8608 52.1278 75.3418 52.5446 75.3578 53.1218C75.454 56.0877 75.7266 61.4424 75.935 64.0557Z" fill="#EB8BFF"/>
<path d="M75.473 64.3688C75.2941 63.4374 75.1523 61.4028 75.1523 61.4028L72.9185 61.6433C72.9185 61.6433 73.0281 63.487 73.1082 64.8898C73.2273 66.974 75.0722 66.8938 74.5912 68.8577C74.0582 71.034 63.357 70.2625 59.7955 72.7952C57.0028 74.7812 56.9138 77.3782 56.9138 77.3782H57.4269C57.4269 77.3782 57.4212 75.2395 59.7955 73.5591C65.2695 69.6848 78.111 74.7094 77.2666 67.9715C77.0762 66.4521 75.8579 66.3728 75.473 64.3688Z" fill="white"/>
<path d="M56.201 79.2997L56.2852 73.3735C56.2894 73.0748 56.6476 72.9247 56.8636 73.1311L58.2317 74.4388C58.3021 74.5062 58.398 74.5403 58.4951 74.5326L60.6977 74.3576C61.0066 74.3331 61.1864 74.6991 60.9781 74.9285L56.7963 79.5345C56.5845 79.7678 56.1965 79.6148 56.201 79.2997Z" fill="#FF7EFA"/>
<path d="M49.2766 44.4689C47.016 44.4689 45.6533 42.3527 45.6533 38.8417C45.6533 37.0621 45.9419 34.7214 46.3747 32.8617C46.519 32.2525 47.0481 31.9158 47.7375 32.012C48.3948 32.1082 48.6994 32.6373 48.5391 33.3908C48.1703 35.0741 47.8978 37.2064 47.8978 38.8417C47.8978 40.7495 48.507 42.2244 49.2766 42.2244C50.479 42.2244 51.521 40.7976 52.5952 36.7415C52.8838 35.6673 53.1403 34.4008 53.4289 32.9739C53.5892 32.2204 54.2144 31.8357 54.9038 32.0441C55.5291 32.2525 55.7856 32.7976 55.5932 33.4389C55.0802 35.1383 54.9359 37.0942 54.7916 38.8898C54.6794 40.3006 54.6794 41.6152 54.7435 42.5771C54.7756 43.1703 54.4709 43.6353 53.9419 43.7795C53.2685 43.9559 52.6754 43.6192 52.5631 42.994C52.5311 42.7856 52.515 42.4168 52.515 42.0801C52.2265 42.6894 51.7455 43.3627 51.2966 43.7314C50.6874 44.2284 50.0301 44.4689 49.2766 44.4689ZM58.6088 44.3246C58.2401 44.4529 57.5828 44.4529 57.2301 44.1483C56.9736 43.9238 56.685 43.523 56.8133 42.8657C57.182 41.006 57.5668 35.9559 57.5668 32.6373C57.5668 31.996 58.1599 31.515 58.8333 31.6272C59.4104 31.7234 59.7952 32.2044 59.7952 32.8938C59.7952 35.7475 59.7952 38.6974 59.17 41.8717C60.8854 41.3587 62.9054 41.0701 64.5888 41.0862C65.2621 41.1022 65.7271 41.6152 65.679 42.2725V42.2886C65.6309 42.9298 65.1499 43.3467 64.4926 43.3306C62.7451 43.3146 60.4846 43.6833 58.6088 44.3246ZM68.3158 44.3246C67.947 44.4529 67.2897 44.4529 66.937 44.1483C66.6805 43.9238 66.3919 43.523 66.5202 42.8657C66.8889 41.006 67.2737 35.9559 67.2737 32.6373C67.2737 31.996 67.8669 31.515 68.5402 31.6272C69.1174 31.7234 69.5021 32.2044 69.5021 32.8938C69.5021 35.7475 69.5021 38.6974 68.8769 41.8717C70.5923 41.3587 72.6124 41.0701 74.2957 41.0862C74.9691 41.1022 75.434 41.6152 75.3859 42.2725V42.2886C75.3378 42.9298 74.8568 43.3467 74.1995 43.3306C72.452 43.3146 70.1915 43.6833 68.3158 44.3246Z" fill="white"/>
<path d="M44.2538 9.28449C47.1492 9.90493 48.8037 12.3178 48.1832 15.0753C47.5628 17.7639 45.2189 19.2805 42.3235 18.7979C38.8077 18.1775 35.4297 17.8328 32.3275 17.8328C18.3331 17.8328 13.3007 22.9342 13.0938 30.4484C13.0249 32.034 13.0249 33.8953 13.0938 35.8945C21.7111 34.5847 30.8798 32.9302 36.257 32.3097C39.2902 32.034 41.5652 33.9643 41.6341 36.9975C41.7031 39.6172 39.9107 41.6853 37.2221 41.961C31.8449 42.5126 22.2626 44.3049 13.6453 45.6837C14.059 50.3715 14.8862 55.0592 16.1271 58.9198C16.9544 61.4015 16.265 63.6075 14.3347 64.8484C11.6461 66.5719 8.26819 65.5378 7.30306 62.7114C3.78722 52.4396 2.95997 38.5831 2.95997 28.9318C2.95997 14.6616 13.7832 8.11254 32.5343 8.11254C36.257 8.11254 40.1175 8.3883 44.2538 9.28449Z" fill="white"/>
<path d="M31.8818 61.6829C32.1864 62.228 31.9619 62.9334 31.3527 63.238C29.1563 64.3763 27.2485 64.9054 25.1323 64.9054C22.3106 64.9054 20.8036 63.0456 20.8036 59.1819C20.8036 57.707 20.9799 55.9434 21.3647 53.8913C21.493 53.2501 22.0541 52.8973 22.6473 53.0416C22.9519 53.1218 23.1603 53.2982 23.2886 53.5386C24.3146 53.1859 26.9278 52.5286 30.4549 51.9996C31.1122 51.9034 31.6573 52.2721 31.7375 52.8653C31.8176 53.4745 31.4168 53.9555 30.7595 54.0517C26.7515 54.6609 24.491 55.3503 23.7856 55.5747C23.6092 55.6228 23.4008 55.6388 23.2084 55.5907C23.0801 56.6008 22.984 57.4986 22.9519 58.3002C23 58.2681 23.0641 58.2521 23.1282 58.236C23.8337 58.0436 24.6994 57.8032 25.6132 57.5306C26.6553 57.226 27.7615 56.9214 28.8357 56.6328C29.4449 56.4725 29.9739 56.7931 30.1182 57.3863C30.2625 57.9635 29.9419 58.4925 29.3487 58.6529C28.3226 58.9254 27.2325 59.246 26.2064 59.5346C25.2765 59.7911 24.3948 60.0476 23.6252 60.2561C23.3848 60.3202 23.1603 60.3042 22.9679 60.24C23.1603 61.9555 23.8657 62.8212 25.1323 62.8212C26.992 62.8212 28.6112 62.244 30.5511 61.3302C31.0481 61.1058 31.6092 61.1859 31.8818 61.6829ZM41.8503 52.1759C42.5397 52.24 42.9565 52.8172 42.8283 53.5226C42.716 54.1158 42.187 54.4845 41.5617 54.4044C40.696 54.3082 39.686 54.3082 38.6439 54.3723C38.9485 56.9855 39.0928 60.4805 39.1409 63.4144C39.1409 64.0717 38.6599 64.5687 38.0186 64.5687C37.3774 64.5687 36.8964 64.0877 36.8964 63.4304C36.8483 60.2881 36.688 56.9695 36.3994 54.6448C35.5818 54.7891 34.8122 54.9655 34.1229 55.1579C33.5136 55.3342 32.9365 55.0456 32.7281 54.4685C32.5036 53.8272 32.7762 53.218 33.3694 53.0416C35.7902 52.3362 39.3012 51.9194 41.8503 52.1759ZM49.887 62.8693C50.0473 63.4625 49.6465 64.0396 48.9411 64.1839C47.5944 64.4565 46.5042 64.6328 45.2056 64.6649C44.5804 64.6809 44.1315 64.232 44.1315 63.6388C44.1315 63.0456 44.5804 62.5967 45.1896 62.5807C45.3179 62.5807 45.4622 62.5647 45.5904 62.5647C45.4942 62.4044 45.4461 62.228 45.4301 62.0196C45.3179 59.8232 45.3339 56.7931 45.6225 54.1158C45.6065 54.1318 45.5904 54.1318 45.5744 54.1318C44.9812 54.2601 44.4521 53.9555 44.2918 53.3783C44.1315 52.7851 44.5323 52.208 45.2377 52.0637C46.36 51.8392 47.2898 51.743 48.38 51.711C49.0052 51.6949 49.4541 52.1438 49.4541 52.737C49.4541 53.3302 49.0052 53.7791 48.396 53.7951C48.2357 53.7951 48.0914 53.8112 47.9311 53.8112C47.6105 56.4084 47.6265 59.6308 47.6906 61.9394C47.6906 62.0677 47.6746 62.1959 47.6425 62.3082L48.6044 62.1158C49.1976 61.9875 49.7267 62.2921 49.887 62.8693ZM55.705 64.5527C52.4826 64.5527 50.7832 62.6288 50.7992 60.8493C50.7992 60.2721 51.0397 59.6468 51.4405 59.23C51.8253 58.8292 52.3543 58.8613 52.7551 59.1018C53.2201 59.3903 53.5247 59.9675 53.2521 60.5607C52.7872 61.4585 53.9896 62.3082 55.705 62.3082C58.2862 62.3082 61.2201 60.721 61.2201 59.3583C61.2201 58.6849 59.8413 58.7491 58.1098 58.8132C55.5928 58.9254 52.4024 59.0537 52.4024 56.6328C52.4024 54.4525 56.1539 51.9996 59.4726 51.9996C61.1239 51.9996 62.4225 52.8653 62.679 54.1479C62.8072 54.7731 62.4225 55.222 61.9575 55.4144C61.4766 55.6068 60.9154 55.5106 60.7712 54.9975C60.6269 54.4845 60.2421 54.244 59.4726 54.244C57.6289 54.244 54.7431 55.5907 54.7431 56.4244C54.7431 56.9695 55.9134 56.9054 57.4685 56.8252C60.0176 56.6969 63.4645 56.5046 63.4645 59.3583C63.4645 61.9715 59.6008 64.5527 55.705 64.5527ZM75.2937 63.5747C75.3418 64.2 74.925 64.713 74.2997 64.7931C73.6424 64.8733 73.0973 64.4244 73.0492 63.7511C72.9691 62.7571 72.8729 61.4104 72.7927 59.9354C71.1574 60.2881 69.6023 60.5126 67.8548 60.721C67.8709 61.7631 67.919 62.725 67.967 63.5106C67.9991 64.1358 67.5823 64.6328 66.957 64.729C66.3157 64.8092 65.7707 64.3282 65.7386 63.6709C65.6905 62.9014 65.6424 61.9555 65.6103 60.9454C65.5462 60.9454 65.4821 60.9615 65.4179 60.9615C64.7606 61.0256 64.1995 60.6569 64.1194 60.0316C64.0392 59.3743 64.5041 58.7811 65.3538 58.701C65.434 58.701 65.4981 58.6849 65.5783 58.6849C65.5622 56.729 65.5943 54.6929 65.6745 53.0416C65.7065 52.3843 66.2035 51.9194 66.8608 51.9675C67.5021 52.0156 67.951 52.5286 67.919 53.202C67.8388 54.741 67.8067 56.6328 67.8228 58.4444C69.6344 58.236 71.1895 57.9955 72.6644 57.6589C72.5683 55.8953 72.5041 54.1318 72.4721 52.8012C72.456 52.1438 72.937 51.6468 73.5783 51.6468C74.2196 51.6468 74.7005 52.0637 74.7165 52.6408C74.8127 55.6068 75.0853 60.9615 75.2937 63.5747Z" fill="white"/>
<path d="M5.05841 11.7835C5.71101 14.7978 7.13451 16.1255 7.74126 16.57C7.9213 16.7019 8.13871 16.7609 8.36175 16.7528C9.03164 16.7287 10.5542 16.5578 11.5915 15.5511C12.4823 14.6865 12.8079 13.5821 12.9266 12.9209C12.9878 12.5798 12.7737 12.2657 12.4567 12.1258C11.731 11.8056 10.3943 11.1287 9.22674 10.0601C7.36291 8.35421 6.02196 5.02991 5.5375 3.69814C5.48121 3.54341 5.25596 3.55835 5.22778 3.72057C4.97775 5.15996 4.43948 8.92484 5.05841 11.7835Z" fill="#FF7EFA"/>
<path d="M51.4249 8.65731C50.7723 11.6715 49.3488 12.9993 48.742 13.4438C48.562 13.5757 48.3446 13.6347 48.1215 13.6266C47.4516 13.6025 45.929 13.4316 44.8918 12.4248C44.001 11.5603 43.6754 10.4559 43.5567 9.79466C43.4955 9.45358 43.7096 9.13946 44.0266 8.99957C44.7523 8.67935 46.089 8.00244 47.2565 6.93387C49.1204 5.22799 50.4613 1.90369 50.9458 0.571916C51.0021 0.417188 51.2273 0.432129 51.2555 0.594346C51.5055 2.03374 52.0438 5.79862 51.4249 8.65731Z" fill="#FF7EFA"/>
</svg>
