<svg width="259" height="259" viewBox="0 0 259 259" fill="none" xmlns="http://www.w3.org/2000/svg">
    <path d="M232.021 129.5C232.021 186.121 186.121 232.021 129.5 232.021C72.8793 232.021 26.9792 186.121 26.9792 129.5C26.9792 72.8793 72.8793 26.9792 129.5 26.9792C186.121 26.9792 232.021 72.8793 232.021 129.5Z" fill="#DAC5D4" fill-opacity="0.88"/>
<!--    <path d="M180.962 120.549C187.312 124.827 187.312 134.173 180.962 138.451L113.946 183.591C106.777 188.419 97.125 183.284 97.125 174.64V84.3595C97.125 75.717 106.777 70.5807 113.946 75.409L180.962 120.549Z" fill="#ECE7F6" fill-opacity="0.95"/>-->

    <path transform="scale(7 7) translate(6.5 6.5)" fill-rule="evenodd" clip-rule="evenodd" d="M20 5L20 19C20 20.6569 18.6569 22 17 22L16 22C14.3431 22 13 20.6569 13 19L13 5C13 3.34314 14.3431 2 16 2L17 2C18.6569 2 20 3.34315 20 5Z" fill="#ECE7F6" fill-opacity="0.95"/>
    <path transform="scale(7 7) translate(6.5 6.5)" fill-rule="evenodd" clip-rule="evenodd" d="M8 2C9.65685 2 11 3.34315 11 5L11 19C11 20.6569 9.65685 22 8 22L7 22C5.34315 22 4 20.6569 4 19L4 5C4 3.34314 5.34315 2 7 2L8 2Z" fill="#ECE7F6" fill-opacity="0.95"/>

</svg>
